<?xml version="1.0" encoding="iso-8859-1"?>
<!-- Generator: Adobe Illustrator 19.0.0, SVG Export Plug-In . SVG Version: 6.00 Build 0)  -->
<svg version="1.1" id="Capa_1" xmlns="http://www.w3.org/2000/svg" xmlns:xlink="http://www.w3.org/1999/xlink" x="0px" y="0px"
	 viewBox="0 0 484.704 484.704" style="enable-background:new 0 0 484.704 484.704;" xml:space="preserve">
<g>
	<g>
		<path d="M240.313,88.989c-21.81,0-39.553,17.743-39.553,39.552c0,21.81,17.743,39.553,39.553,39.553s39.552-17.743,39.552-39.553
			C279.865,106.732,262.123,88.989,240.313,88.989z"/>
		<path d="M414.255,75.486C368.941,30.95,307.781,6.145,243.529,5.637C179.02,5.75,116.746,30.318,71.09,74.858
			C25.247,119.58,0,179.063,0,242.352c0,62.946,25.014,122.201,70.432,166.85c45.302,44.533,107.305,69.345,171.546,69.865
			c64.506-0.117,125.983-24.685,171.636-69.221c45.844-44.723,71.09-104.206,71.09-167.494
			C484.705,179.397,459.685,120.136,414.255,75.486z M240.313,398.341c-21.81,0-39.553-17.744-39.553-39.553
			c0-21.81,17.743-39.552,39.553-39.552s39.552,17.743,39.552,39.552C279.865,380.597,262.123,398.341,240.313,398.341z
			 M241.893,230.242c-32.956,1.251-63.887,14.468-87.097,37.217c-23.777,23.305-36.872,54.273-36.872,87.196
			c0,28.63,9.633,55.841,27.353,77.86C73.641,397.566,24.236,325.28,24.236,242.352c0-117.166,97.847-212.486,218.116-212.486
			c0.139,0,0.278-0.002,0.417-0.007c55.056,0.224,99.774,45.083,99.774,100.19C342.544,184.089,298.332,228.1,241.893,230.242z"/>
	</g>
</g>
<g>
</g>
<g>
</g>
<g>
</g>
<g>
</g>
<g>
</g>
<g>
</g>
<g>
</g>
<g>
</g>
<g>
</g>
<g>
</g>
<g>
</g>
<g>
</g>
<g>
</g>
<g>
</g>
<g>
</g>
</svg>
